<svg xmlns="http://www.w3.org/2000/svg" id="Layer_1" data-name="Layer 1" viewBox="0 0 512 512" width="512" height="512" class=""><g><title>user security 2</title><path d="M112.361,118.068a91.2,91.2,0,0,1,81.048-90.514A92.751,92.751,0,0,0,183.431,27a91.173,91.173,0,0,0-91.07,91.068l.09,30.693.976.974a7.983,7.983,0,0,0,9.046,1.564,7.824,7.824,0,0,0,3.7-3.63,21.29,21.29,0,0,1,6.253-7.776Z" style="fill:#d4e1f4" data-original="#D4E1F4" class=""></path><path d="M138.813,262.84a90.541,90.541,0,0,1-23.334-59.95v-.133a7,7,0,0,0-5.793-6.9,15.282,15.282,0,0,1-12.172-18.675,9.753,9.753,0,0,1,8.839-7.46,7,7,0,0,0,5.986-4.719,21.931,21.931,0,0,0,26.444-11.26c.967-2.006,2.452-3.168,3.11-3.2l.352-.02c13.038-.728,35.444-1.991,59.329-13.409q-3.986-3.21-7.718-6.75c-28.271,17.736-56.354,19.307-71.611,20.159l-.352.02c-.658.036-2.143,1.2-3.11,3.2a21.931,21.931,0,0,1-26.444,11.26,7,7,0,0,1-5.986,4.719,9.753,9.753,0,0,0-8.839,7.46,15.282,15.282,0,0,0,12.172,18.675,7,7,0,0,1,5.793,6.9v.133a90.541,90.541,0,0,0,23.334,59.95c15.241,16.845,35.191,26.122,56.175,26.122h17.071c.49,0,.976-.03,1.464-.041C173.078,288.5,153.7,279.291,138.813,262.84Z" style="fill:#d4e1f4" data-original="#D4E1F4" class=""></path><path d="M111.3,291.627a54,54,0,0,1-9.727-27.846,105.937,105.937,0,0,1-15.01-29.432l-3.267,12.277A53.955,53.955,0,0,0,129.523,314.2l7.645-2.591v-.261A53.648,53.648,0,0,1,111.3,291.627Z" style="fill:#d4e1f4" data-original="#D4E1F4" class=""></path><path d="M87.6,349.971l24.044-8.15-5.169-5.026L67.6,349.971a39.855,39.855,0,0,0-27.076,37.764v63.6h20v-63.6A39.855,39.855,0,0,1,87.6,349.971Z" style="fill:#d4e1f4" data-original="#D4E1F4" class=""></path><polygon points="152.301 334.652 176.43 358.716 176.43 358.688 142.301 324.652 121.366 331.748 131.576 341.677 152.301 334.652" style="fill:#d4e1f4" data-original="#D4E1F4" class=""></polygon><path d="M194.988,303.307h17.071c1.278,0,2.55-.043,3.821-.106v-3.646a77.815,77.815,0,0,1-22.357,3.724C194.012,303.288,194.5,303.307,194.988,303.307Z" style="fill:#d4e1f4" data-original="#D4E1F4" class=""></path><path d="M171.168,315.16V303.2a77.94,77.94,0,0,1-20-3.647V315.16L183.524,350.7l10-10.984Z" style="fill:#d4e1f4" data-original="#D4E1F4" class=""></path><path d="M322.3,387.176v-55.85l66.994-36.715-10.141-5.4L302.3,331.326v55.85a112.925,112.925,0,0,0,67.687,103.343l8.834,3.85,10.078-4.352A112.907,112.907,0,0,1,322.3,387.176Z" style="fill:#d4e1f4" data-original="#D4E1F4" class=""></path><path d="M190.43,405.005l70.143-68.21L293.05,347.8l4.494-13.26-39.534-13.4a68.042,68.042,0,0,0,40.5-76.555L290.444,205.5a29.287,29.287,0,0,0,12.687-31.644,23.52,23.52,0,0,0-14.775-16.633l.14-38.506a105.068,105.068,0,1,0-210.135-.627l.1,33.575c0,.054,0,.108,0,.163l.122,5.434a23.518,23.518,0,0,0-14.668,16.593,29.3,29.3,0,0,0,15.422,33.2l-9.573,35.973A68.011,68.011,0,0,0,106.4,322.037l-43.3,14.674a53.851,53.851,0,0,0-36.581,51.024v70.6a7,7,0,0,0,7,7H318.772v-14H190.43ZM142.3,324.652l34.129,34.036v26.605l-55.064-53.545Zm32.687-21.69h17.071a85,85,0,0,0,23.821-3.407v14.168l-32.356,32.269-32.356-32.269V299.555A84.992,84.992,0,0,0,174.988,302.962Zm15.442,82.516v-26.6l34.317-34.225,20.936,7.1Zm83.67-93.437a53.876,53.876,0,0,1-41.153,20.305,7.1,7.1,0,0,0-.735.054l-2.332-.791V294.123a95.715,95.715,0,0,0,28.735-21.89,105.331,105.331,0,0,0,22.833-41.046l3.347,16.229A53.877,53.877,0,0,1,274.1,292.041ZM183.431,27A91.068,91.068,0,0,1,274.5,118.647l-.117,32.169a111.991,111.991,0,0,1-68.873-28.74c12.87-10.3,25.414-24.437,36.416-43.91a7,7,0,0,0-12.19-6.887c-34.546,61.149-84.338,63.93-108.267,65.266l-.354.019c-6.078.34-11.8,4.595-14.939,11.105a7.824,7.824,0,0,1-3.7,3.63,7.983,7.983,0,0,1-9.046-1.564l-.976-.974-.09-30.693A91.173,91.173,0,0,1,183.431,27ZM77.514,177.186a9.753,9.753,0,0,1,8.839-7.46,7,7,0,0,0,5.986-4.719,21.931,21.931,0,0,0,26.444-11.26c.967-2.006,2.452-3.168,3.11-3.2l.352-.02c15.257-.852,43.34-2.423,71.611-20.159a126.039,126.039,0,0,0,80.8,34.479,7,7,0,0,0,6.034,4.883,9.753,9.753,0,0,1,8.84,7.461,15.281,15.281,0,0,1-12.172,18.674,7,7,0,0,0-5.793,6.9v.133a90.542,90.542,0,0,1-23.335,59.95c-15.24,16.845-35.19,26.122-56.174,26.122H174.988c-20.984,0-40.934-9.277-56.175-26.122a90.541,90.541,0,0,1-23.334-59.95v-.133a7,7,0,0,0-5.793-6.9,15.282,15.282,0,0,1-12.172-18.675ZM91.3,291.627a53.988,53.988,0,0,1-8-45l3.267-12.277a105.249,105.249,0,0,0,21.871,37.884,95.71,95.71,0,0,0,28.736,21.891v17.485l-7.645,2.591A53.65,53.65,0,0,1,91.3,291.627ZM40.524,387.735A39.855,39.855,0,0,1,67.6,349.971L106.475,336.8l69.955,68.026v46.511H40.524Z" style="fill:#0B7A65" data-original="#0635C9" class="active-path" data-old_color="#0635C9"></path><path d="M214.288,407.265a7,7,0,0,0,0,14h9.726a7,7,0,0,0,0-14Z" style="fill:#0B7A65" data-original="#0635C9" class="active-path" data-old_color="#0635C9"></path><path d="M468.589,321,382.4,275.072a7,7,0,0,0-6.657.039l-83.806,45.93a7,7,0,0,0-3.636,6.139v60a126.93,126.93,0,0,0,76.08,116.171l11.632,5.07a7,7,0,0,0,5.572.01l13.1-5.657A126.685,126.685,0,0,0,472.3,385.982v-58.8A7,7,0,0,0,468.589,321ZM458.3,385.982a112.709,112.709,0,0,1-69.1,103.9l-.05.02-10.334,4.463-8.834-3.85A112.925,112.925,0,0,1,302.3,387.176v-55.85l76.853-42.119L458.3,331.382Z" style="fill:#0B7A65" data-original="#1AE5BE" class="" data-old_color="#1AE5BE"></path><path d="M349.532,382.63a7,7,0,0,0-10.646,9.092l22.666,26.544a7,7,0,0,0,9.741.883l52.79-42.948a7,7,0,1,0-8.836-10.859L367.76,403.976Z" style="fill:#0B7A65" data-original="#1AE5BE" class="" data-old_color="#1AE5BE"></path></g> </svg>