<svg xmlns="http://www.w3.org/2000/svg" id="Layer_1" data-name="Layer 1" viewBox="0 0 512 512" width="512" height="512" class=""><g><title>lady nurse</title><path d="M246,281.048a6.962,6.962,0,0,0-2.936-1.824c-20.913-14.127-22.948-41.452-23.112-44.589a7,7,0,0,0-7-6.786c-.095,0-.19,0-.288,0-7.717,0-22.147-10.512-23.959-25.538-.713-.865-1.452-1.8-2.223-2.777-2.069-2.626-8.366-10.615-10.98-10.615a5.911,5.911,0,0,0-4.1,1.918c-1.946,1.99-2.97,5.164-2.885,8.936.372,16.37,16.006,28.076,24.15,28.076.1,0,.193,0,.288,0a7,7,0,0,1,7,6.786c.164,3.137,2.2,30.462,23.112,44.589A6.962,6.962,0,0,1,226,281.048c8.1,4.52,25.328,11.129,29.993,12.365,1.83-.49,5.578-1.813,9.942-3.515A180.205,180.205,0,0,1,246,281.048Z" style="fill:#d4e1f4" data-original="#D4E1F4" class=""></path><path d="M206.48,199.537c1.151,1.46,2.239,2.84,3.259,4a7,7,0,0,0,11.868-6.931c-.128-.364-11.188-32.509-7.34-57.282-6.894-1.093-13.453-2.332-19.341-3.563-4.455,19.912,2.258,46.217,5.305,56.477A93.265,93.265,0,0,1,206.48,199.537Z" style="fill:#d4e1f4" data-original="#D4E1F4" class=""></path><path d="M237.192,324.674c2.406-.7,4.57-1.324,6.416-1.855,3.058-.879,5.267-1.513,6.542-1.928.077-.026.148-.059.224-.086s.167-.062.25-.1c.132-.054.262-.112.389-.173.061-.029.12-.059.179-.09.143-.074.284-.15.42-.233l.1-.064q.231-.144.449-.3l.026-.021a6.969,6.969,0,0,0,1.879-2.142c.046-.082.1-.161.14-.244s.087-.191.131-.286.1-.207.142-.315.077-.214.114-.321.071-.2.1-.3c.038-.13.068-.263.1-.4.019-.081.041-.16.057-.241.029-.15.05-.3.069-.455.008-.057.02-.112.026-.169l.011-.1,0-.042.767-7.3c-4.224-.23-18.382-5.628-28.9-10.468l-1.866,17.766,0,.042-.011.1c-.006.057-.018.112-.026.169-.019.153-.04.305-.069.455-.016.081-.038.16-.057.241-.031.132-.061.265-.1.4-.03.1-.067.2-.1.3s-.071.216-.114.321-.093.211-.142.315-.084.192-.131.286-.094.162-.14.244a6.969,6.969,0,0,1-1.879,2.142l-.026.021q-.218.16-.449.3l-.1.064c-.136.083-.277.159-.42.233-.059.031-.118.061-.179.09-.127.061-.257.119-.389.173-.083.033-.166.064-.25.1s-.147.06-.224.086c-1.275.415-3.484,1.049-6.542,1.928-1.846.531-4.01,1.152-6.416,1.855,3.251,13.435,18.322,36,48.808,36a55.175,55.175,0,0,0,15.02-2.019C250.479,352.839,239.858,335.69,237.192,324.674Z" style="fill:#d4e1f4" data-original="#D4E1F4" class=""></path><path d="M113.8,467.065c1.256-5.927,9.351-43.728,16.6-68.258,3.987-13.488,11.974-25.5,23.861-35.943a7.057,7.057,0,0,0,1.1-.941q13.671-11.668,33.9-20.634c2.533-1.12,5.181-2.216,7.886-3.285a53.609,53.609,0,0,1-3.375-9.279,342.212,342.212,0,0,0-34.511,12.564q-20.22,8.942-33.9,20.634a7.057,7.057,0,0,1-1.1.941c-11.887,10.443-19.874,22.455-23.861,35.943-7.25,24.53-15.345,62.331-16.6,68.258C84.139,472.979,89.043,479,93.69,479h30C119.043,479,114.139,472.979,113.8,467.065Z" style="fill:#d4e1f4" data-original="#D4E1F4" class=""></path><path d="M425.111,394.043c-4.666-19.192-16.681-33.663-30.7-44.728-9.7-24.217-21.263-81.341-21.523-118.781-.466-67.02-8.805-109.284-26.246-133a7,7,0,0,0-11.28,8.293c15.607,21.225,23.082,60.883,23.526,124.808.223,32.077,8.093,76.6,16.592,106.108-6.485-3.673-12.912-6.806-18.825-9.494-20.5-9.323-44.846-15.48-56.544-18.439L299,308.526l-.738-19.012c19.611-14.39,25.416-37.168,27.117-48.44A37.475,37.475,0,0,0,342.1,231.2a44.2,44.2,0,0,0,13.383-31.26c0-12.991-2.359-25.013-19.48-25.013a13.545,13.545,0,0,0-7.623,2.971c1.3-18.282-.244-42.459-17.163-53.5-.029-.019-.059-.033-.087-.051-.113-.072-.229-.137-.344-.2-.092-.051-.182-.1-.275-.149-.114-.057-.229-.107-.345-.157-.1-.044-.2-.088-.3-.126s-.22-.077-.331-.112-.22-.072-.331-.1-.209-.05-.314-.073-.237-.053-.356-.072c-.1-.017-.2-.028-.305-.04-.122-.015-.245-.03-.368-.038-.1-.007-.2-.007-.305-.01-.123,0-.245-.006-.367,0-.1,0-.21.012-.315.02s-.233.016-.349.031-.222.034-.333.053-.216.037-.323.06-.23.059-.344.09-.2.054-.3.086c-.117.038-.231.082-.346.126-.094.037-.189.072-.283.112-.112.049-.222.105-.332.16-.093.046-.186.09-.276.14s-.2.122-.305.185-.188.116-.279.179-.18.132-.269.2-.19.145-.282.224-.156.141-.233.213c-.094.088-.188.176-.278.27-.07.073-.137.152-.2.229-.088.1-.175.2-.258.307-.022.027-.045.051-.066.078-13.29,17.517-16.96,32.265-17.759,41.305-24.863-4.223-72.18-15.724-86.58-34.891a6.989,6.989,0,0,0-1.267-1.286q.2-.594.417-1.176a7,7,0,0,0-13.119-4.887c-5.9,15.836-4.339,35.8-1.48,51.322a15.636,15.636,0,0,0-6.522-1.484,19.7,19.7,0,0,0-14.114,6.132c-4.6,4.707-7.042,11.468-6.87,19.041.453,19.983,16.641,37.171,32.013,40.973,1.556,11.314,7.128,34.154,27,48.575l-2.017,19.212-1.767.508c-3.215.924-7.37,2.118-12.094,3.534-.121.033-.241.068-.359.107-12.8,3.843-29.7,9.3-43.688,15.481a169.82,169.82,0,0,0-20.594,10.785c8.1-27.227,20.979-76.892,17.864-118.662-5.778-77.475,6.92-92.632,24.5-113.611a7,7,0,0,0-10.732-8.99c-21.034,25.107-33.626,44.512-27.724,123.642,3.549,47.579-15.253,107.347-21.431,126.988-.685,2.174-1.159,3.681-1.489,4.8-13.3,12.029-22.452,25.97-27.013,41.4-8.009,27.094-16.681,68.4-17.046,70.15a6.982,6.982,0,0,0-.149,1.434,28.513,28.513,0,0,0,6.557,17.719C80.962,489.771,87.286,493,93.69,493H418.31c6.4,0,12.727-3.229,17.351-8.859a28.513,28.513,0,0,0,6.557-17.719,7.015,7.015,0,0,0-.187-1.607C441.939,464.425,432.731,425.383,425.111,394.043ZM199.95,234.635a7,7,0,0,0-7-6.786c-.095,0-.19,0-.288,0-8.144,0-23.778-11.706-24.15-28.076-.085-3.772.939-6.946,2.885-8.936a5.911,5.911,0,0,1,4.1-1.918c2.614,0,8.911,7.989,10.98,10.615,1.151,1.46,2.239,2.84,3.259,4a7,7,0,0,0,11.868-6.931c-.113-.321-8.722-25.32-8.136-48.206,28.8,24.8,93.737,33.627,96.743,34.024a7.928,7.928,0,0,0,1.03.067,6.81,6.81,0,0,0,5.106-2.169A6.739,6.739,0,0,0,298,174.167c-.1-.6-2.2-13.6,10.474-33.287,9.767,13.56,5.687,41.06,4.022,52.267-.273,1.846-.49,3.305-.612,4.431-.67,6.191,2.691,8.287,4.753,8.987.584.2,5.789,1.765,8.951-3.941,2.625-4.737,8.651-11.986,11.3-13.689,2.677.085,3.107.541,3.15.6.337.446,1.439,2.509,1.439,10.4a30.129,30.129,0,0,1-9.189,21.269c-4.186,4.107-9.345,6.7-13.115,6.646a7.047,7.047,0,0,0-7.129,6.7c-.358,5.218-3.232,31.931-24.7,45.482-7.187,4.544-26.376,12.046-31.357,13.38-4.665-1.236-21.9-7.845-29.993-12.365a6.962,6.962,0,0,0-2.936-1.824C202.149,265.1,200.114,237.772,199.95,234.635Zm13.658,88.184c3.058-.879,5.267-1.513,6.542-1.928.077-.026.148-.059.224-.086s.167-.062.25-.1c.132-.054.262-.112.389-.173.061-.029.12-.059.179-.09.143-.074.284-.15.42-.233l.1-.064q.231-.144.449-.3l.026-.021a6.969,6.969,0,0,0,1.879-2.142c.046-.082.1-.161.14-.244s.087-.191.131-.286.1-.207.142-.315.077-.214.114-.321.071-.2.1-.3c.038-.13.068-.263.1-.4.019-.081.041-.16.057-.241.029-.15.05-.3.069-.455.008-.057.02-.112.026-.169l.011-.1,0-.042,1.866-17.766C237.576,302,252.134,307.529,256,307.529c3.842,0,17.895-5.387,28.555-10.329l.66,17.02c0,.028.006.056.008.085.007.142.021.283.037.423.01.094.019.187.034.279.018.117.041.233.065.349s.047.229.075.341c.024.09.052.178.079.268.039.131.079.262.126.389.027.073.058.145.087.217.055.136.112.272.175.4.033.069.07.136.1.2.067.128.135.255.208.377.046.076.095.148.143.222.071.108.142.216.219.319.062.085.128.167.195.249s.14.173.214.256.162.174.245.259.141.142.214.21c.09.084.185.165.28.245.076.063.153.126.232.187.094.072.191.142.29.209s.184.124.278.183.182.109.275.161c.115.065.232.125.351.183.079.038.158.076.24.112.14.062.283.118.428.171.044.016.086.037.132.052s.125.041.186.061l.066.021c1.151.372,2.987.842,6.477,1.725,2.455.621,5.488,1.388,8.928,2.3a47.18,47.18,0,0,1-11.683,20.181c-6.895,7.217-19.071,15.82-37.921,15.82-30.486,0-45.557-22.57-48.808-36C209.6,323.971,211.762,323.35,213.608,322.819ZM418.31,479H93.69c-4.647,0-9.551-6.021-9.889-11.935,1.256-5.927,9.351-43.728,16.6-68.258,3.987-13.488,11.974-25.5,23.861-35.943a7.057,7.057,0,0,0,1.1-.941q13.671-11.668,33.9-20.634a342.212,342.212,0,0,1,34.511-12.564C198.886,348.6,219.65,374.679,256,374.679c23.8,0,39.262-10.956,48.043-20.148,7.345-7.687,12.752-17.225,15.047-26.072a254.083,254.083,0,0,1,31.768,11.531c22.541,10.248,53.351,27.344,60.65,57.361,6.969,28.661,15.27,63.787,16.687,69.788C427.82,473.029,422.936,479,418.31,479Z" style="fill:#E0740F" data-original="#1AE5BE" class="active-path" data-old_color="#1AE5BE"></path><path d="M329,469h20a7,7,0,0,0,7-7V441h21a7,7,0,0,0,7-7V414a7,7,0,0,0-7-7H356V387a7,7,0,0,0-7-7H329a7,7,0,0,0-7,7v20H302a7,7,0,0,0-7,7v20a7,7,0,0,0,7,7h20v21A7,7,0,0,0,329,469Zm-20-42v-6h20a7,7,0,0,0,7-7V394h6v20a7,7,0,0,0,7,7h21v6H349a7,7,0,0,0-7,7v21h-6V434a7,7,0,0,0-7-7Z" style="fill:#E0740F" data-original="#0635C9" class="" data-old_color="#0635C9"></path><path d="M348,121.678V65.786a7,7,0,0,0-3.172-5.86c-1.3-.852-32.593-20.848-91.044-20.848-53.76,0-86.147,19.9-87.5,20.743A7,7,0,0,0,163,65.754V122.5a7,7,0,0,0,5.049,6.723c1.916.555,47.36,13.617,85.735,13.617,43.119,0,87.464-13.9,89.331-14.491A7,7,0,0,0,348,121.678Zm-14-5.238c-12.555,3.542-47.264,12.4-80.216,12.4-29.192,0-63.977-8.338-76.784-11.692V69.874c9.058-4.68,36.414-16.8,76.784-16.8,43.831,0,71.308,12.144,80.216,16.791Z" style="fill:#E0740F" data-original="#0635C9" class="" data-old_color="#0635C9"></path></g> </svg>