<?xml version="1.0" ?><svg data-name="Слой 1" id="Слой_1" viewBox="0 0 128 128" xmlns="http://www.w3.org/2000/svg"><title/><path d="M64,128c-2.91,0-5.25-2.22-7.31-4.17-1.4-1.33-2.85-2.7-4-2.93s-3.16.48-5,1.19c-2.74,1-5.57,2.13-8.17,1s-4-4-5.1-6.6c-.79-1.79-1.62-3.63-2.63-4.31s-3.06-.74-5-.8c-2.94-.08-6-.16-8-2.18s-2.1-5-2.18-8c-.06-2-.11-4-.8-5s-2.52-1.83-4.31-2.62c-2.58-1.15-5.5-2.45-6.6-5.1s0-5.43,1-8.17c.71-1.85,1.44-3.77,1.19-5s-1.6-2.61-2.93-4C2.22,69.25,0,66.91,0,64s2.22-5.25,4.17-7.31c1.33-1.4,2.7-2.85,2.93-4s-.48-3.16-1.19-5c-1-2.74-2.13-5.57-1-8.17s4-4,6.6-5.1c1.79-.79,3.63-1.62,4.31-2.63s.74-3.06.8-5c.08-2.94.16-6,2.18-8s5.05-2.1,8-2.18c2-.06,4-.11,5-.8s1.83-2.52,2.62-4.31c1.15-2.58,2.45-5.5,5.1-6.6s5.43,0,8.17,1c1.85.71,3.77,1.44,5,1.19s2.61-1.6,4-2.93C58.75,2.22,61.09,0,64,0s5.25,2.22,7.31,4.17c1.4,1.33,2.85,2.7,4,2.93s3.16-.48,5-1.19c2.74-1,5.57-2.13,8.17-1s4,4,5.1,6.6c.79,1.79,1.62,3.63,2.63,4.31s3.06.74,5,.8c2.94.08,6,.16,8,2.18s2.1,5.05,2.18,8c.06,2,.11,4,.8,5s2.52,1.83,4.31,2.62c2.58,1.15,5.5,2.45,6.6,5.1s0,5.43-1,8.17c-.71,1.85-1.44,3.77-1.19,5s1.6,2.61,2.93,4c2,2.06,4.17,4.4,4.17,7.31s-2.22,5.25-4.17,7.31c-1.33,1.4-2.7,2.85-2.93,4s.48,3.16,1.19,5c1,2.74,2.13,5.57,1,8.17s-4,4-6.6,5.1c-1.79.79-3.63,1.62-4.31,2.63s-.74,3.06-.8,5c-.08,2.94-.16,6-2.18,8s-5,2.1-8,2.18c-2,.06-4,.11-5,.8s-1.83,2.52-2.62,4.31c-1.15,2.58-2.45,5.5-5.1,6.6s-5.43,0-8.17-1c-1.85-.71-3.77-1.44-5-1.19s-2.61,1.6-4,2.93C69.25,125.78,66.91,128,64,128ZM52.14,116.85a7.37,7.37,0,0,1,1.32.12c2.29.46,4.17,2.24,6,4C61,122.44,62.68,124,64,124s3-1.56,4.56-3.07c1.81-1.72,3.69-3.5,6-4s4.84.48,7.22,1.39c2,.76,4.08,1.56,5.21,1.09s2.09-2.55,3-4.53c1-2.31,2.09-4.69,4.06-6s4.61-1.41,7.15-1.48c2.16-.06,4.39-.12,5.28-1s.94-3.12,1-5.28c.07-2.54.15-5.16,1.48-7.15s3.7-3,6-4.06c2-.88,4-1.79,4.53-3s-.33-3.21-1.09-5.21c-.91-2.38-1.86-4.85-1.39-7.22s2.24-4.17,4-6C122.44,67,124,65.32,124,64s-1.56-3-3.07-4.56c-1.72-1.81-3.5-3.69-4-6s.48-4.84,1.39-7.22c.76-2,1.56-4.07,1.09-5.21s-2.55-2.09-4.53-3c-2.31-1-4.69-2.09-6-4.06s-1.41-4.61-1.48-7.15c-.06-2.16-.12-4.39-1-5.28s-3.12-.94-5.28-1C98.61,20.5,96,20.42,94,19.09s-3-3.7-4.06-6c-.88-2-1.79-4-3-4.53s-3.2.33-5.21,1.09c-2.38.91-4.85,1.86-7.22,1.39s-4.17-2.24-6-4C67,5.56,65.32,4,64,4s-3,1.56-4.56,3.07c-1.81,1.72-3.69,3.5-6,4s-4.84-.48-7.22-1.39c-2-.76-4.08-1.56-5.21-1.09s-2.09,2.55-3,4.53c-1,2.31-2.09,4.69-4.06,6s-4.61,1.41-7.15,1.48c-2.16.06-4.39.12-5.28,1s-.94,3.12-1,5.28C20.5,29.39,20.42,32,19.09,34s-3.7,3-6,4.06c-2,.88-4,1.79-4.53,3s.33,3.21,1.09,5.21c.91,2.38,1.86,4.85,1.39,7.22s-2.24,4.17-4,6C5.56,61,4,62.68,4,64s1.56,3,3.07,4.56c1.72,1.81,3.5,3.69,4,6s-.48,4.84-1.39,7.22c-.76,2-1.56,4.07-1.09,5.21s2.55,2.09,4.53,3c2.31,1,4.69,2.09,6,4.06s1.41,4.61,1.48,7.15c.06,2.16.12,4.39,1,5.28s3.12.94,5.28,1c2.54.07,5.16.15,7.15,1.48s3,3.7,4.06,6c.88,2,1.79,4,3,4.53s3.21-.33,5.21-1.09A17.09,17.09,0,0,1,52.14,116.85Z"/><path d="M37,88a8,8,0,1,1,8-8A8,8,0,0,1,37,88Zm0-12a4,4,0,1,0,4,4A4,4,0,0,0,37,76Z"/><path d="M64,47A10,10,0,1,1,74,37,10,10,0,0,1,64,47Zm0-16a6,6,0,1,0,6,6A6,6,0,0,0,64,31Z"/><path d="M87,95a7,7,0,1,1,7-7A7,7,0,0,1,87,95Zm0-10a3,3,0,1,0,3,3A3,3,0,0,0,87,85Z"/><path d="M80,59a2,2,0,1,1,2-2A2,2,0,0,1,80,59Zm2-2Zm-2,0h0Z"/><path d="M84,31a2,2,0,1,1,2-2A2,2,0,0,1,84,31Zm2-2Zm-2,0h0Z"/><path d="M102,75a2,2,0,1,1,2-2A2,2,0,0,1,102,75Zm2-2Zm-2,0h0Z"/><path d="M57,76a2,2,0,1,1,2-2A2,2,0,0,1,57,76Zm2-2Zm-2,0h0Z"/><path d="M24,53a2,2,0,1,1,2-2A2,2,0,0,1,24,53Zm2-2Zm-2,0h0Z"/><path d="M62,106a2,2,0,1,1,2-2A2,2,0,0,1,62,106Zm2-2Zm-2,0h0Z"/></svg>