<svg xmlns="http://www.w3.org/2000/svg" id="Layer_1" data-name="Layer 1" viewBox="0 0 512 512" width="512" height="512" class="hovered-paths"><g><title>security check</title><path d="M189.679,27.521A95.787,95.787,0,0,0,83.915,122.763v47.8a7,7,0,0,0,3.222-.837,6.667,6.667,0,0,0,3.541-5.646l1.7-37.313a7,7,0,0,1,7.352-6.673c.057,0,1.552.076,4.22.122A95.908,95.908,0,0,1,189.679,27.521Z" style="fill:#d4e1f4" data-original="#D4E1F4" class=""></path><path d="M112.424,238.593q-.063-.334-.158-.66l-5.145-17.7a7,7,0,0,0-5.691-5.7,18.855,18.855,0,0,1-15.018-23.04,12.136,12.136,0,0,1,8.567-8.981,20.762,20.762,0,0,0,29.685-17.8l1.387-30.464c2.286.021,5.081.018,8.3-.039-.337-.285-.679-.561-1.015-.85-11.7.832-21.257.946-27.289.889l-1.387,30.464a20.712,20.712,0,0,1-29.685,17.8,12.136,12.136,0,0,0-8.567,8.981,18.855,18.855,0,0,0,15.018,23.04,7,7,0,0,1,5.691,5.7l5.145,17.7q.094.326.158.66a88.584,88.584,0,0,0,97.233,71.777A88.82,88.82,0,0,1,112.424,238.593Z" style="fill:#d4e1f4" data-original="#D4E1F4" class=""></path><path d="M160.95,343.575V323.229a102.553,102.553,0,0,1-20-5.858v26.2a89.9,89.9,0,0,0,48.707,8.19A89.185,89.185,0,0,1,160.95,343.575Z" style="fill:#d4e1f4" data-original="#D4E1F4" class=""></path><path d="M49.048,412.437q.207-.884.447-1.76c4.092-14.9,15.66-26.755,30.945-31.71l61.2-19.842q-4.275-1.683-8.414-3.757l-72.784,23.6c-15.285,4.955-26.853,16.809-30.945,31.71q-.242.877-.447,1.76A43.4,43.4,0,0,0,28,422.383v44.6H48v-44.6A43.4,43.4,0,0,1,49.048,412.437Z" style="fill:#d4e1f4" data-original="#D4E1F4" class=""></path><path d="M322.3,387.176v-55.85l66.994-36.715-10.141-5.4L302.3,331.326v55.85a112.925,112.925,0,0,0,67.687,103.343l8.834,3.85,10.078-4.352A112.907,112.907,0,0,1,322.3,387.176Z" style="fill:#d4e1f4" data-original="#D4E1F4" class=""></path><path d="M27,422.383a43.4,43.4,0,0,1,1.048-9.946q.207-.884.447-1.76c4.092-14.9,15.66-26.755,30.945-31.71l72.784-23.6a103.985,103.985,0,0,0,92.867,0l68.047,22.063,4.318-13.319-66.092-21.427V310.367a102.707,102.707,0,0,0,48.222-68.847l4.155-14.294a32.873,32.873,0,0,0,21.76-39.064,26.181,26.181,0,0,0-17.06-18.723V122.763a109.763,109.763,0,1,0-219.526,0v46.66a26.184,26.184,0,0,0-17.1,18.736,32.871,32.871,0,0,0,21.759,39.067l4.156,14.295a102.705,102.705,0,0,0,48.221,68.845v32.319L55.122,365.648C35.34,372.062,20.339,387.51,15,406.967q-.313,1.14-.582,2.291A57.134,57.134,0,0,0,13,422.383v51.6a7,7,0,0,0,7,7H333.314v-14H27ZM187.542,124.791c8.93,9.5,36.973,34.724,86.9,39.855v3.606c-19.325-.457-76.463-4.655-121.939-36.9l.633-.082A298.247,298.247,0,0,0,187.542,124.791ZM82.915,122.763a95.763,95.763,0,1,1,191.526,0v27.785c-36.664-4.161-60.155-20.4-71.319-30.248,18.726-6.144,34.674-14.221,47.671-24.189A7,7,0,1,0,242.273,85c-26.564,20.373-63.982,28.839-90.694,32.353a327.179,327.179,0,0,1-52.85,2.737,7,7,0,0,0-7.352,6.673l-1.7,37.313a6.667,6.667,0,0,1-3.541,5.646,7,7,0,0,1-3.222.837Zm8.509,115.83q-.063-.334-.158-.66l-5.145-17.7a7,7,0,0,0-5.691-5.7,18.855,18.855,0,0,1-15.018-23.04,12.136,12.136,0,0,1,8.567-8.981,20.762,20.762,0,0,0,29.685-17.8l1.387-30.464c6.028.057,15.591-.057,27.289-.889,31.215,26.769,69.543,38.645,96.493,43.9,29.77,5.8,51.948,5.032,52.877,5,.157-.006.311-.025.464-.041a12.246,12.246,0,0,1,9.729,9.273,18.86,18.86,0,0,1-15.018,23.041,7,7,0,0,0-5.692,5.7l-5.144,17.7c-.064.217-.116.438-.158.66a88.762,88.762,0,0,1-174.467,0Zm87.233,86.36a102.4,102.4,0,0,0,38.707-7.582v26.2a90.035,90.035,0,0,1-77.414,0v-26.2A102.4,102.4,0,0,0,178.657,324.953Z" style="fill:#0B7A65" data-original="#0635C9" class="hovered-path active-path" data-old_color="#0635C9"></path><path d="M468.589,321,382.4,275.072a7,7,0,0,0-6.657.039l-83.806,45.93a7,7,0,0,0-3.636,6.139v60a126.93,126.93,0,0,0,76.08,116.171l11.632,5.07a7,7,0,0,0,5.572.01l13.1-5.657A126.685,126.685,0,0,0,472.3,385.982v-58.8A7,7,0,0,0,468.589,321ZM458.3,385.982a112.709,112.709,0,0,1-69.1,103.9l-.05.02-10.334,4.463-8.834-3.85A112.925,112.925,0,0,1,302.3,387.176v-55.85l76.853-42.119L458.3,331.382Z" style="fill:#0B7A65" data-original="#1AE5BE" class="" data-old_color="#1AE5BE"></path><path d="M349.532,382.63a7,7,0,0,0-10.646,9.092l22.666,26.544a7,7,0,0,0,9.741.883l52.79-42.948a7,7,0,1,0-8.836-10.859L367.76,403.976Z" style="fill:#0B7A65" data-original="#1AE5BE" class="" data-old_color="#1AE5BE"></path></g> </svg>