<svg xmlns="http://www.w3.org/2000/svg" id="Layer_1" data-name="Layer 1" viewBox="0 0 512 512" width="512" height="512" class="hovered-paths"><g><title>Cancel User</title><path d="M223.679,21.021a95.786,95.786,0,0,0-105.763,95.242v47.8a7,7,0,0,0,3.221-.837,6.667,6.667,0,0,0,3.541-5.646l1.7-37.314a7,7,0,0,1,7.352-6.672c.057,0,1.552.075,4.221.121A95.907,95.907,0,0,1,223.679,21.021Z" style="fill:#d4e1f4" data-original="#D4E1F4"></path><path d="M146.424,232.093c-.042-.223-.095-.444-.158-.661l-5.145-17.7a7,7,0,0,0-5.691-5.7,18.857,18.857,0,0,1-15.018-23.042,12.137,12.137,0,0,1,8.567-8.98,20.761,20.761,0,0,0,29.684-17.8l1.388-30.463c2.288.02,5.082.017,8.3-.04-.337-.285-.679-.561-1.015-.85-11.7.833-21.251.944-27.289.89l-1.388,30.463a20.711,20.711,0,0,1-29.684,17.8,12.137,12.137,0,0,0-8.567,8.98,18.857,18.857,0,0,0,15.018,23.042,7,7,0,0,1,5.691,5.7l5.145,17.7c.063.217.116.438.158.661a88.584,88.584,0,0,0,97.233,71.777A88.818,88.818,0,0,1,146.424,232.093Z" style="fill:#d4e1f4" data-original="#D4E1F4"></path><path d="M233.657,318.453a102.547,102.547,0,0,0,18.708-1.724v-5.858a102.4,102.4,0,0,1-28.708,7.1Q228.6,318.448,233.657,318.453Z" style="fill:#d4e1f4" data-original="#D4E1F4"></path><path d="M194.95,337.075V316.729a102.464,102.464,0,0,1-20-5.858v26.2a89.914,89.914,0,0,0,48.707,8.19A89.21,89.21,0,0,1,194.95,337.075Z" style="fill:#d4e1f4" data-original="#D4E1F4"></path><path d="M233.657,359.81a103.887,103.887,0,0,0,38.019-7.186l-11.585-3.756a103.216,103.216,0,0,1-36.434,10.453C226.982,359.64,230.319,359.81,233.657,359.81Z" style="fill:#d4e1f4" data-original="#D4E1F4"></path><path d="M83.047,405.94q.207-.887.448-1.763c4.092-14.9,15.66-26.755,30.945-31.711l61.2-19.842q-4.275-1.682-8.415-3.756l-72.784,23.6c-15.285,4.956-26.853,16.81-30.945,31.711q-.241.876-.448,1.763A43.42,43.42,0,0,0,62,415.883v44.6H82v-44.6A43.42,43.42,0,0,1,83.047,405.94Z" style="fill:#d4e1f4" data-original="#D4E1F4"></path><path d="M304,408.5a83.106,83.106,0,0,1,73-82.376,83,83,0,1,0,0,164.752A83.106,83.106,0,0,1,304,408.5Z" style="fill:#d4e1f4" data-original="#D4E1F4"></path><path d="M55,474.479H299.018v-14H62v-44.6a43.352,43.352,0,0,1,1.047-9.943c.138-.592.288-1.181.448-1.763,4.092-14.9,15.66-26.755,30.945-31.711l72.784-23.6a103.994,103.994,0,0,0,92.867,0l33.773,10.95,4.318-13.318-31.817-10.315V303.866a102.7,102.7,0,0,0,48.22-68.846l4.156-14.3a32.866,32.866,0,0,0,21.76-39.063,26.186,26.186,0,0,0-17.059-18.723V116.263a109.763,109.763,0,0,0-219.526,0v46.66a26.186,26.186,0,0,0-17.1,18.74,32.87,32.87,0,0,0,21.761,39.062l4.155,14.3a102.7,102.7,0,0,0,48.221,68.846v32.319L90.123,359.149c-19.783,6.414-34.785,21.861-40.129,41.323q-.312,1.137-.581,2.287A57.139,57.139,0,0,0,48,415.883v51.6A7,7,0,0,0,55,474.479ZM222.542,118.291c8.93,9.5,36.973,34.724,86.9,39.855v3.605c-19.325-.456-76.464-4.654-121.939-36.9l.632-.082A298.247,298.247,0,0,0,222.542,118.291Zm-104.626-2.028a95.763,95.763,0,0,1,191.526,0v27.785c-36.665-4.162-60.156-20.4-71.319-30.248,18.725-6.144,34.673-14.221,47.67-24.189a7,7,0,0,0-8.519-11.11c-26.565,20.374-63.982,28.839-90.695,32.354a327.458,327.458,0,0,1-52.85,2.737,7,7,0,0,0-7.352,6.672l-1.7,37.313a6.667,6.667,0,0,1-3.541,5.647,7,7,0,0,1-3.221.837Zm8.508,115.83a6.759,6.759,0,0,0-.158-.661l-5.145-17.7a7,7,0,0,0-5.691-5.7,18.857,18.857,0,0,1-15.018-23.042,12.135,12.135,0,0,1,8.567-8.98,20.762,20.762,0,0,0,29.685-17.8l1.387-30.463c6.04.054,15.592-.057,27.289-.89,31.215,26.77,69.543,38.645,96.493,43.9,29.77,5.805,51.948,5.034,52.878,5,.155-.006.307-.025.46-.041a12.249,12.249,0,0,1,9.732,9.275,18.856,18.856,0,0,1-15.018,23.041,7,7,0,0,0-5.691,5.7l-5.145,17.7a6.759,6.759,0,0,0-.158.661,88.762,88.762,0,0,1-174.467,0Zm87.234,86.36a102.4,102.4,0,0,0,38.707-7.582v26.2a90.044,90.044,0,0,1-77.415,0v-26.2A102.406,102.406,0,0,0,213.658,318.453Z" style="fill:#C12020" data-original="#0635C9" class="hovered-path active-path" data-old_color="#0635C9"></path><path d="M367,505.5a97,97,0,1,0-97-97A97.11,97.11,0,0,0,367,505.5Zm0-180a83,83,0,1,1-83,83A83.093,83.093,0,0,1,367,325.5Z" style="fill:#C12020" data-original="#1AE5BE" class="" data-old_color="#1AE5BE"></path><path d="M333.158,442.342a7,7,0,0,0,9.9,0L367,418.4l23.942,23.943a7,7,0,0,0,9.9-9.9L376.9,408.5l23.943-23.942a7,7,0,0,0-9.9-9.9L367,398.6l-23.942-23.943a7,7,0,0,0-9.9,9.9L357.1,408.5l-23.943,23.942A7,7,0,0,0,333.158,442.342Z" style="fill:#C12020" data-original="#1AE5BE" class="" data-old_color="#1AE5BE"></path></g> </svg>