<svg xmlns="http://www.w3.org/2000/svg" id="Layer_1" data-name="Layer 1" viewBox="0 0 512 512" width="512" height="512" class="hovered-paths"><g><title>male nurse</title><path d="M259.2,277.908c-22.948-14.487-26.022-43.022-26.4-48.6a7.047,7.047,0,0,0-7-6.713c-.092,0-.183,0-.274,0-8.078,0-19.658-12.649-24.149-31.659-1.377-5.836.41-9.8,2.653-11.011,2.5-1.352,5.2,1.06,6.242,2.16.034.036.072.067.107.1.078.078.158.153.238.227s.177.161.269.237c.074.062.15.12.226.178.1.079.208.156.315.229.072.049.146.095.221.141.114.072.229.141.346.206.076.041.153.079.231.118.119.059.24.118.362.17.083.035.166.067.251.1.121.046.242.091.365.13.089.029.179.054.269.08.125.034.25.066.375.094.089.019.179.036.268.052.135.024.27.045.406.061.082.009.164.018.246.024.152.013.3.02.455.023.041,0,.081.006.123.006q.1,0,.2,0h.009a6.944,6.944,0,0,0,1.4-.181l.011,0c.215-.051.427-.112.638-.184.043-.015.084-.033.126-.048.168-.061.335-.125.5-.2.055-.025.108-.054.162-.08.147-.072.294-.144.438-.227.059-.034.115-.072.172-.108.134-.082.267-.164.4-.256.059-.042.115-.089.172-.132.1-.079.211-.154.312-.24.019-.016.035-.034.054-.051.039-.033.074-.07.112-.105.131-.118.26-.238.38-.365.021-.022.041-.047.062-.071.132-.142.259-.287.377-.438l.048-.067c.118-.154.23-.311.333-.473.024-.037.045-.076.068-.114.091-.149.178-.3.257-.452.031-.06.059-.123.088-.185.064-.134.126-.267.181-.4.033-.083.062-.167.092-.251.043-.121.085-.242.122-.364.028-.1.052-.193.077-.29.029-.117.057-.235.08-.353.019-.1.036-.2.052-.3.018-.124.033-.248.046-.373.009-.1.017-.191.023-.287.007-.139.009-.278.009-.417,0-.058,0-.116,0-.175A160.566,160.566,0,0,1,224.4,149.7a102.671,102.671,0,0,1,3.129-13.507,104.1,104.1,0,0,1-5.735-14.33c-.244-.719-.481-1.416-.716-2.1-4.434-.666-8.744-1.4-12.853-2.165-6.436,5.36-11.193,16.351-13.825,32.1a160.566,160.566,0,0,0-2.053,27.371c0,.059,0,.117,0,.175,0,.139,0,.278-.009.417-.006.1-.014.191-.023.287-.013.125-.028.249-.046.373-.016.1-.033.2-.052.3-.023.118-.051.236-.08.353-.025.1-.049.194-.077.29-.037.122-.079.243-.122.364-.03.084-.059.168-.092.251-.055.137-.117.27-.181.4-.029.062-.057.125-.088.185-.079.154-.166.3-.257.452-.023.038-.044.077-.068.114-.1.162-.215.319-.333.473l-.048.067c-.118.151-.245.3-.377.438-.021.024-.041.049-.062.071-.12.127-.249.247-.38.365-.038.035-.073.072-.112.105-.019.017-.035.035-.054.051-.1.086-.208.161-.312.24-.057.043-.113.09-.172.132-.129.092-.262.174-.4.256-.057.036-.113.074-.172.108-.144.083-.291.155-.438.227-.054.026-.107.055-.162.08-.165.075-.332.139-.5.2-.042.015-.083.033-.126.048-.211.072-.423.133-.638.184l-.011,0a6.944,6.944,0,0,1-1.4.181h-.009q-.1,0-.2,0c-.042,0-.082-.005-.123-.006-.152,0-.3-.01-.455-.023-.082-.006-.164-.015-.246-.024-.136-.016-.271-.037-.406-.061-.089-.016-.179-.033-.268-.052-.125-.028-.25-.06-.375-.094-.09-.026-.18-.051-.269-.08-.123-.039-.244-.084-.365-.13-.085-.033-.168-.065-.251-.1-.122-.052-.243-.111-.362-.17-.078-.039-.155-.077-.231-.118-.117-.065-.232-.134-.346-.206-.075-.046-.149-.092-.221-.141-.107-.073-.211-.15-.315-.229-.076-.058-.152-.116-.226-.178-.092-.076-.18-.156-.269-.237s-.16-.149-.238-.227c-.035-.036-.073-.067-.107-.1-1.044-1.1-3.74-3.512-6.242-2.16-2.243,1.213-4.03,5.175-2.653,11.011,4.491,19.01,16.071,31.659,24.149,31.659.091,0,.182,0,.274,0a7.047,7.047,0,0,1,7,6.713c.383,5.574,3.457,34.109,26.405,48.6,9.055,5.724,20.325,8.625,33.5,8.625a78,78,0,0,0,15.1-1.4A54.461,54.461,0,0,1,259.2,277.908Z" style="fill:#d4e1f4" data-original="#D4E1F4" class=""></path><path d="M241.142,318.9q1.491-.461,2.941-.927a6.983,6.983,0,0,0,5.651-4.054l6.2-13.646a76.147,76.147,0,0,1-27-6.612l-9.2,20.258a6.983,6.983,0,0,1-5.651,4.054q-1.45.466-2.941.927c3.306,14.077,19.548,38.95,51.558,38.95a57.37,57.37,0,0,0,15.121-1.972C255.581,349.742,243.889,330.6,241.142,318.9Z" style="fill:#d4e1f4" data-original="#D4E1F4" class=""></path><path d="M292.7,300.533c1.944,0,3.845-.072,5.726-.179l-2.3-6.383a73.782,73.782,0,0,1-18.346,5.367A91.864,91.864,0,0,0,292.7,300.533Z" style="fill:#d4e1f4" data-original="#D4E1F4" class=""></path><path d="M121,462.663V400.285C121,379,131.057,363.023,152.648,350c13.908-8.388,30.879-14.395,47.656-19.421a54.148,54.148,0,0,1-2.615-7.751q-3.534.99-7.19,2C167.871,331.1,142.223,338.2,122.648,350,101.057,363.023,91,379,91,400.285v62.378c0,5.775,11.222,16.259,17.4,16.259h30C132.222,478.922,121,468.438,121,462.663Z" style="fill:#d4e1f4" data-original="#D4E1F4" class=""></path><path d="M186.763,311.337C140.44,324.163,77,341.728,77,400.285v62.378c0,13.574,17.315,30.259,31.4,30.259H406.859c14.228,0,28.141-17.326,28.141-30.259V400.285c0-26.863-11.259-47.365-34.419-62.677-19.241-12.719-43.929-19.854-65.712-26.149-6.938-2-13.547-3.918-19.684-5.911l-6.787-18.8c20.435-15.387,26.087-39.316,27.644-51,13.836-3.815,26.525-20.07,31.613-41.595,2.756-11.707-1.29-22.612-10.067-27.134a16.79,16.79,0,0,0-7.709-1.914c.445-3.35.907-7.429,1.385-12.416,1.138-11.873,1.864-23.868,1.864-26.91a83.973,83.973,0,0,0-4.122-25.35,7,7,0,1,0-13.321,4.307,69.784,69.784,0,0,1,3.443,21.043c0,1.193-.1,3.441-.273,6.337-2.986-10.648-6.92-20.886-12.014-27.68a7,7,0,0,0-9.286-1.748,7,7,0,0,0-7,3.6c-10.655,19.614-23.162,18.61-40.47,17.221-1.624-.13-3.258-.261-4.9-.376-7-.484-9.521,3.6-10.287,5.379-1.353,3.146-1.522,7.86,6.136,17.156-17.294-2.616-21.862-16.108-25.985-28.295-.865-2.558-1.682-4.974-2.592-7.137a7,7,0,1,0-12.9,5.43c.714,1.7,1.452,3.881,2.235,6.193,4.653,13.757,12.94,38.26,45.605,38.26a77.108,77.108,0,0,0,10.876-.817,7,7,0,0,0,3.747-12.083,124.988,124.988,0,0,1-9.247-9.459c15.805,1.152,32.97.952,46.479-18.864,8.212,16.759,12.708,47.315,13.838,59.051.006.065.02.127.028.192.015.125.032.25.054.374.017.1.039.192.06.288s.05.221.08.331.059.2.091.3.067.2.105.305.077.2.118.293.086.2.134.294.09.183.139.272.109.2.166.292.1.166.156.247c.064.1.131.191.2.285.057.077.116.154.176.229s.146.177.222.263.135.149.2.221.154.156.235.232.159.146.241.217c.045.038.086.08.132.118s.072.052.108.08c.1.076.2.149.3.22.083.058.165.116.249.17s.2.122.3.181.179.1.27.151.209.1.314.147.186.087.281.125c.114.046.231.084.347.124.089.03.176.064.265.09.13.039.264.069.4.1.078.018.156.04.235.056.138.027.279.045.421.064.075.01.151.025.227.033.126.012.253.016.38.021.1.005.19.013.284.014l.038,0c.087,0,.175-.01.262-.013.125,0,.25-.007.374-.018l.043,0c.068-.006.133-.021.2-.03.146-.018.292-.037.438-.064.1-.019.191-.043.287-.065.124-.029.247-.058.37-.094.1-.03.2-.065.3-.1s.224-.078.335-.122.2-.085.3-.129.215-.1.32-.153.186-.1.277-.155.207-.121.308-.186.175-.119.261-.181.193-.139.286-.213.17-.142.253-.214.171-.151.253-.231.168-.169.249-.257c.05-.053.1-.1.152-.157,1.232-1.4,3.63-3.585,5.86-2.435,2.462,1.269,4.232,5.62,2.853,11.477-4.52,19.125-16.183,31.836-24.292,31.66a7.007,7.007,0,0,0-7.132,6.8c-.295,5.59-2.95,34.173-26.218,48.635-.056.034-.111.069-.166.1-9.056,5.572-20.333,8.4-33.52,8.4s-24.445-2.9-33.5-8.625c-22.948-14.487-26.022-43.022-26.4-48.6a7.047,7.047,0,0,0-7-6.713c-.092,0-.183,0-.274,0-8.078,0-19.658-12.649-24.149-31.659-1.377-5.836.41-9.8,2.653-11.011,2.5-1.352,5.2,1.06,6.242,2.16.034.036.072.067.107.1.078.078.158.153.238.227s.177.161.269.237c.074.062.15.12.226.178.1.079.208.156.315.229.072.049.146.095.221.141.114.072.229.141.346.206.076.041.153.079.231.118.119.059.24.118.362.17.083.035.166.067.251.1.121.046.242.091.365.13.089.029.179.054.269.08.125.034.25.066.375.094.089.019.179.036.268.052.135.024.27.045.406.061.082.009.164.018.246.024.152.013.3.02.455.023.041,0,.081.006.123.006q.1,0,.2,0h.009a6.944,6.944,0,0,0,1.4-.181l.011,0c.215-.051.427-.112.638-.184.043-.015.084-.033.126-.048.168-.061.335-.125.5-.2.055-.025.108-.054.162-.08.147-.072.294-.144.438-.227.059-.034.115-.072.172-.108.134-.082.267-.164.4-.256.059-.042.115-.089.172-.132.1-.079.211-.154.312-.24.019-.016.035-.034.054-.051.039-.033.074-.07.112-.105.131-.118.26-.238.38-.365.021-.022.041-.047.062-.071.132-.142.259-.287.377-.438l.048-.067c.118-.154.23-.311.333-.473.024-.037.045-.076.068-.114.091-.149.178-.3.257-.452.031-.06.059-.123.088-.185.064-.134.126-.267.181-.4.033-.083.062-.167.092-.251.043-.121.085-.242.122-.364.028-.1.052-.193.077-.29.029-.117.057-.235.08-.353.019-.1.036-.2.052-.3.018-.124.033-.248.046-.373.009-.1.017-.191.023-.287.007-.139.009-.278.009-.417,0-.058,0-.116,0-.175A160.566,160.566,0,0,1,194.4,149.7c2.934-17.556,8.5-29.223,16.1-33.739a7,7,0,1,0-7.154-12.034c-11.882,7.062-18.157,21.856-21.453,36.38a78.809,78.809,0,0,1-1.9-10.94c0-.99-.009-1.973-.018-2.948-.068-7.395-.122-13.237,3.818-18.282a7,7,0,1,0-11.034-8.616c-6.949,8.9-6.861,18.53-6.783,27.027.008.931.017,1.871.017,2.819,0,4.138,3.824,22.306,7.8,36.222a17.44,17.44,0,0,0-6.424,2.026c-8.427,4.554-12.293,15.221-9.622,26.544,5.095,21.56,17.821,37.835,31.688,41.611,1.677,11.463,7.5,35.178,27.45,50.579l-8.523,18.758C201.776,307.179,194.463,309.205,186.763,311.337Zm140.975,12.631,3.244.94c20.821,6.018,44.419,12.837,61.878,24.379,19.2,12.692,28.14,28.9,28.14,51v62.378c0,6.382-8.59,16.259-14.141,16.259H108.4c-6.18,0-17.4-10.484-17.4-16.259V400.285C91,379,101.057,363.023,122.648,350,142.223,338.2,167.871,331.1,190.5,324.829q3.657-1.012,7.19-2c5.182,20.678,27.282,49.023,65.011,49.023,24.5,0,40.425-11.281,49.466-20.744C319.814,343.105,325.424,333.155,327.738,323.968Zm-113.655-5.992a6.983,6.983,0,0,0,5.651-4.054l9.2-20.258c9.808,4.557,21.123,6.869,33.762,6.869,12.5,0,23.7-2.209,33.422-6.562l6.374,17.657a7,7,0,0,0,4.711,6.023c2.3.786,4.676,1.546,7.084,2.3-1.422,6.155-5.373,14.293-12.248,21.489-7.154,7.488-19.787,16.414-39.343,16.414-32.01,0-48.252-24.873-51.558-38.95Q212.633,318.443,214.083,317.976Z" style="fill:#E0740F" data-original="#1AE5BE" class="hovered-path active-path" data-old_color="#1AE5BE"></path><path d="M392,435.922v-20a7,7,0,0,0-7-7H364v-21a7,7,0,0,0-7-7H336a7,7,0,0,0-7,7v21H306a7,7,0,0,0-7,7v20a7,7,0,0,0,7,7h23v22a7,7,0,0,0,7,7h21a7,7,0,0,0,7-7v-22h21A7,7,0,0,0,392,435.922Zm-14-7H357a7,7,0,0,0-7,7v22h-7v-22a7,7,0,0,0-7-7H313v-6h23a7,7,0,0,0,7-7v-21h7v21a7,7,0,0,0,7,7h21Z" style="fill:#E0740F" data-original="#0635C9" class="" data-old_color="#0635C9"></path><path d="M352,101.678V45.786a7,7,0,0,0-3.172-5.861c-1.3-.851-32.593-20.847-91.044-20.847-53.76,0-86.147,19.9-87.5,20.744A7,7,0,0,0,167,45.754V102.5a7,7,0,0,0,5.049,6.723c1.916.556,47.36,13.616,85.735,13.616,43.119,0,87.464-13.9,89.331-14.49A7,7,0,0,0,352,101.678Zm-14-5.237c-12.555,3.541-47.264,12.4-80.216,12.4-29.192,0-63.977-8.338-76.784-11.691V49.874c9.058-4.68,36.414-16.8,76.784-16.8,43.831,0,71.308,12.144,80.216,16.791Z" style="fill:#E0740F" data-original="#0635C9" class="" data-old_color="#0635C9"></path></g> </svg>