<svg height="512pt" viewBox="0 0 512 512" width="512pt" xmlns="http://www.w3.org/2000/svg" xmlns:xlink="http://www.w3.org/1999/xlink"><linearGradient id="a" gradientUnits="userSpaceOnUse" x1="256" x2="256" y1="0" y2="512"><stop offset="0" stop-color="#2af598"/><stop offset="1" stop-color="#009efd"/></linearGradient><path d="m511.21875 276c.507812-6.621094.78125-13.289062.78125-20 0-68.378906-26.628906-132.667969-74.980469-181.019531-48.351562-48.351563-112.640625-74.980469-181.019531-74.980469s-132.667969 26.628906-181.019531 74.980469c-48.351563 48.351562-74.980469 112.640625-74.980469 181.019531s26.628906 132.667969 74.980469 181.019531c48.351562 48.351563 112.640625 74.980469 181.019531 74.980469 6.710938 0 13.378906-.265625 20-.773438v-235.226562zm-62.757812-118c12.167968 23.800781 20.035156 50.144531 22.605468 78h-77.472656c-1.089844-27.105469-4.386719-53.378906-9.71875-78zm-26.425782-40h-49.109375c-4.519531-13.421875-9.730469-26.089844-15.597656-37.820312-3.6875-7.375-7.585937-14.257813-11.667969-20.671876 29.664063 13.589844 55.738282 33.703126 76.375 58.492188zm-68.472656 118h-77.5625v-78h66.878906c5.859375 24.210938 9.492188 50.554688 10.683594 78zm-32.011719-137.933594c3.164063 6.328125 6.109375 12.988282 8.835938 19.933594h-54.386719v-72.890625c16.46875 8.339844 32.394531 26.644531 45.550781 52.957031zm-131.101562 0c13.15625-26.3125 29.082031-44.617187 45.550781-52.957031v72.890625h-54.386719c2.726563-6.945312 5.671875-13.605469 8.835938-19.933594zm45.550781 59.933594v78h-77.5625c1.191406-27.445312 4.824219-53.789062 10.683594-78zm-69.660156-98.492188c-4.082032 6.414063-7.980469 13.296876-11.667969 20.671876-5.863281 11.730468-11.074219 24.398437-15.597656 37.820312h-49.109375c20.636718-24.789062 46.710937-44.902344 76.375-58.492188zm-102.800782 98.492188h64.585938c-5.332031 24.621094-8.628906 50.894531-9.71875 78h-77.472656c2.570312-27.855469 10.4375-54.199219 22.605468-78zm0 196c-12.167968-23.800781-20.035156-50.144531-22.605468-78h77.472656c1.089844 27.105469 4.386719 53.378906 9.71875 78zm26.425782 40h49.109375c4.519531 13.421875 9.730469 26.089844 15.597656 37.820312 3.6875 7.375 7.585937 14.257813 11.664063 20.671876-29.660157-13.589844-55.734376-33.703126-76.371094-58.492188zm100.484375 19.933594c-3.164063-6.328125-6.109375-12.988282-8.835938-19.933594h54.386719v72.890625c-16.46875-8.339844-32.394531-26.644531-45.550781-52.957031zm45.550781-59.933594h-66.878906c-5.859375-24.210938-9.492188-50.554688-10.683594-78h77.5625zm272.921875-37.777344c8.835937 8.835938-3.28125 34.550782-12.117187 43.386719l-19.375 19.371094 12.589843 111.085937-21.511719 21.515625-32.113281-91.5625-50.589843 50.246094v33.652344l-8.515626 8.082031-22.402343-41.464844-43.238281-22.664062 9.226562-8.871094h34.339844l49.925781-50.128906-91.617187-32.273438 21.527343-21.503906 111.320313 12.328125 19.15625-19.09375c8.832031-8.835937 34.5625-20.941406 43.394531-12.105469zm0 0" fill="url(#a)"/></svg>