<svg height="480pt" viewBox="0 -43 480.6 480" width="480pt" xmlns="http://www.w3.org/2000/svg"><path d="m83.875 52.914062h22.632812v328.363282h-22.632812zm0 0" fill="#d4e1f4"/><path d="m281.417969 132.960938h22.632812v257.53125h-22.632812zm0 0" fill="#d4e1f4"/><path d="m469.871094 335.277344c-3.3125 0-6 2.683594-6 6v7c-.003906 4.945312-4 8.964844-8.945313 9h-.238281v-19.734375c11.714844-2.792969 19.984375-13.25 20-25.292969v-26.664062c0-14.363282-11.640625-26-26-26s-26 11.636718-26 26v26.664062c.019531 12.042969 8.289062 22.5 20 25.292969v49.890625c0 3.3125 2.6875 6 6 6s6-2.6875 6-6v-18.15625h.257812c11.5625-.0625 20.90625-9.441406 20.925782-21v-7c0-3.316406-2.683594-6-6-6zm-35.183594-23.027344v-26.664062c0-7.734376 6.269531-14 14-14 7.734375 0 14 6.265624 14 14v26.664062c-.007812 5.402344-3.121094 10.316406-8 12.628906v-5c0-3.3125-2.6875-6-6-6s-6 2.6875-6 6v5c-4.878906-2.3125-7.992188-7.226562-8-12.628906zm0 0" fill="#1ae5be"/><path d="m416.300781 352.0625v-215.511719c0-3.316406-2.6875-6-6-6h-127.5c-3.316406 0-6 2.683594-6 6v251.164063h12v-75.164063h30.5v75.164063h12v-75.164063h30.5v39.097657c-10.230469 1.941406-17.488281 11.085937-17.058593 21.484374.429687 10.402344 8.425781 18.914063 18.777343 20 10.355469 1.085938 19.9375-5.585937 22.515625-15.671874 2.578125-10.085938-2.628906-20.539063-12.234375-24.554688v-40.355469h30.5v39.726563c-9.953125 3.160156-16.078125 13.140625-14.386719 23.445312 1.691407 10.300782 10.6875 17.804688 21.128907 17.613282 10.4375-.1875 19.15625-8.003907 20.476562-18.363282 1.320313-10.355468-5.160156-20.113281-15.21875-22.910156zm-50.613281 29.214844c-4.96875 0-9-4.03125-9-9 0-4.972656 4.03125-9 9-9 4.972656 0 9 4.027344 9 9-.003906 4.96875-4.03125 8.992187-9 9zm38.613281-123.226563h-30.5v-30.5h30.5zm-42.5-73v30.5h-30.5v-30.5zm-30.5-12v-30.5h30.5v30.5zm-12 42.5h-30.5v-30.5h30.5zm0 12v30.5h-30.5v-30.5zm12 0h30.5v30.5h-30.5zm73-12h-30.5v-30.5h30.5zm0-42.5h-30.5v-30.5h30.5zm-85-30.5v30.5h-30.5v-30.5zm-30.5 158v-30.5h30.5v30.5zm42.5 0v-30.5h30.5v30.5zm42.5 0v-30.5h30.5v30.5zm36.886719 80.726563c-4.96875 0-9-4.03125-9-9 0-4.972656 4.03125-9 9-9 4.972656 0 9 4.027344 9 9-.003906 4.96875-4.03125 8.992187-9 9zm0 0" fill="#1ae5be"/><path d="m474.601562 381.714844h-218.300781v-330.164063c0-3.316406-2.6875-6-6-6h-22.332031v-4.917969h8.164062c3.3125 0 6-2.6875 6-6v-28.332031c0-3.316406-2.6875-6-6-6h-141.664062c-3.316406 0-6 2.683594-6 6v28.332031c0 3.3125 2.683594 6 6 6h8.164062v4.917969h-22.332031c-3.316406 0-6 2.683594-6 6v300.582031c-5.992187 1.734376-10.894531 6.050782-13.378906 11.773438-2.480469 5.71875-2.285156 12.25.539063 17.808594h-7.535157c4.472657-8.832032 2.171875-19.59375-5.53125-25.820313-7.699219-6.226562-18.707031-6.226562-26.40625 0-7.703125 6.226563-10.003906 16.988281-5.527343 25.820313h-10.460938c-3.3125 0-6 2.6875-6 6 0 3.316406 2.6875 6 6 6h468.601562c3.3125 0 6-2.683594 6-6 0-3.3125-2.6875-6-6-6zm-439.410156-18.4375c4.972656 0 9 4.027344 9 9 0 4.96875-4.027344 9-9 9-4.96875 0-9-4.03125-9-9 .007813-4.96875 4.03125-8.996094 9-9zm90 0c4.972656 0 9 4.027344 9 9 0 4.96875-4.027344 9-9 9-4.96875 0-9-4.03125-9-9 .007813-4.96875 4.03125-8.996094 9-9zm3.609375-11.667969v-39.058594h30.5v69.164063h-15.375c3.007813-5.925782 3.023438-12.929688.039063-18.871094s-8.613282-10.113281-15.164063-11.234375zm30.5-294.058594v30.5h-30.5v-30.5zm85 243h-30.5v-30.5h30.5zm-73-127.5v-30.5h30.5v30.5zm30.5 12v30.5h-30.5v-30.5zm-42.5-12h-30.5v-30.5h30.5zm0 12v30.5h-30.5v-30.5zm0 42.5v30.5h-30.5v-30.5zm12 0h30.5v30.5h-30.5zm30.5 42.5v30.5h-30.5v-30.5zm42.5-12h-30.5v-30.5h30.5zm0-42.5h-30.5v-30.5h30.5zm0-42.5h-30.5v-30.5h30.5zm0-42.5h-30.5v-30.5h30.5zm-42.5 0h-30.5v-30.5h30.5zm-30.5-42.5v-30.5h30.5v30.5zm-12 12v30.5h-30.5v-30.5zm-42.5 30.5h-30.5v-30.5h30.5zm0 12v30.5h-30.5v-30.5zm0 42.5v30.5h-30.5v-30.5zm0 42.5v30.5h-30.5v-30.5zm0 42.5v30.5h-30.5v-30.5zm12 0h30.5v30.5h-30.5zm42.5 42.5h30.5v69.164063h-30.5zm42.5 0h30.5v69.164063h-30.5zm30.5-224.5h-30.5v-30.5h30.5zm-143.832031-75.75h129.664062v16.332031h-129.664062zm14.164062 28.332031h101.335938v4.917969h-101.335938zm2.167969 16.917969v30.5h-30.5v-30.5zm-36.609375 305.726563c4.972656 0 9 4.027344 9 9 0 4.96875-4.027344 9-9 9-4.96875 0-9-4.03125-9-9 .007813-4.96875 4.03125-8.996094 9-9zm6.109375-11.089844v-39.636719h30.5v40.488281c-5.296875 2.292969-9.410156 6.671876-11.367187 12.101563-1.957032 5.429687-1.585938 11.429687 1.027344 16.574219h-7.535157c2.804688-5.527344 3.015625-12.011719.582031-17.710938-2.4375-5.699218-7.273437-10.023437-13.207031-11.816406zm0 0" fill="#0635c9"/></svg>