<?xml version="1.0"?>
<svg xmlns="http://www.w3.org/2000/svg" id="Layer_1" data-name="Layer 1" viewBox="0 0 512 512" width="512" height="512"><title>User</title><path d="M266.021,36.532a95.786,95.786,0,0,0-105.763,95.241v47.8a6.97,6.97,0,0,0,3.221-.837,6.664,6.664,0,0,0,3.542-5.646l1.7-37.313a7,7,0,0,1,7.351-6.672c.058,0,1.553.074,4.222.12A95.9,95.9,0,0,1,266.021,36.532Z" style="fill:#d4e1f4"/><path d="M188.767,247.6c-.042-.223-.095-.444-.158-.661l-5.146-17.7a7,7,0,0,0-5.691-5.7A18.856,18.856,0,0,1,162.755,200.5a12.134,12.134,0,0,1,8.566-8.98,20.762,20.762,0,0,0,29.685-17.8l1.387-30.463c2.288.021,5.083.018,8.306-.04-.338-.285-.68-.561-1.016-.85-11.7.834-21.251.945-27.29.89l-1.387,30.463a20.712,20.712,0,0,1-29.685,17.8,12.134,12.134,0,0,0-8.566,8.98,18.856,18.856,0,0,0,15.017,23.041,7,7,0,0,1,5.691,5.7l5.146,17.7c.063.217.116.438.158.661A88.574,88.574,0,0,0,266,319.38,88.817,88.817,0,0,1,188.767,247.6Z" style="fill:#d4e1f4"/><path d="M237.293,332.24a102.512,102.512,0,0,1-20-5.858v26.2A89.905,89.905,0,0,0,266,360.776a89.179,89.179,0,0,1-28.707-8.191Z" style="fill:#d4e1f4"/><path d="M125.389,421.452q.207-.888.448-1.764c4.092-14.9,15.661-26.755,30.946-31.711l61.2-19.842q-4.275-1.683-8.414-3.757l-72.784,23.6c-15.285,4.956-26.854,16.811-30.946,31.711q-.24.876-.448,1.764a43.4,43.4,0,0,0-1.046,9.942v44.595h20V431.394A43.4,43.4,0,0,1,125.389,421.452Z" style="fill:#d4e1f4"/><path d="M97.343,489.989H414.657a7,7,0,0,0,7-7V431.394a57.148,57.148,0,0,0-1.413-13.125q-.269-1.152-.581-2.289c-5.344-19.459-20.345-34.906-40.128-41.32L308.707,351.7V314.623h-14v37.962a90.035,90.035,0,0,1-77.414,0V314.623h-14V351.7L132.465,374.66c-19.783,6.414-34.784,21.861-40.128,41.319q-.312,1.137-.581,2.29a57.148,57.148,0,0,0-1.413,13.125v51.595A7,7,0,0,0,97.343,489.989Zm7-58.595a43.4,43.4,0,0,1,1.046-9.942q.207-.888.448-1.764c4.092-14.9,15.661-26.755,30.946-31.711l72.784-23.6a103.992,103.992,0,0,0,92.866,0l72.784,23.6c15.285,4.956,26.854,16.811,30.946,31.711q.24.876.447,1.764a43.337,43.337,0,0,1,1.047,9.942v44.595H104.343Z" style="fill:#0635c9"/><path d="M155.072,250.531a102.762,102.762,0,0,0,201.856,0l4.156-14.3a32.871,32.871,0,0,0,21.76-39.063,26.183,26.183,0,0,0-17.06-18.723V131.773a109.763,109.763,0,0,0-219.526,0v46.661a26.185,26.185,0,0,0-17.1,18.738,32.873,32.873,0,0,0,21.76,39.064ZM264.885,133.8c8.93,9.5,36.973,34.724,86.9,39.854v3.6c-19.34-.475-76.523-4.716-121.933-36.891l.627-.082A298.038,298.038,0,0,0,264.885,133.8Zm-104.627-2.029a95.763,95.763,0,0,1,191.526,0v27.785c-36.664-4.161-60.155-20.4-71.319-30.247,18.725-6.144,34.674-14.222,47.671-24.189a7,7,0,0,0-8.52-11.11c-26.564,20.373-63.982,28.839-90.694,32.354a327.747,327.747,0,0,1-52.851,2.737,7,7,0,0,0-7.351,6.672l-1.7,37.313a6.664,6.664,0,0,1-3.542,5.646,6.97,6.97,0,0,1-3.221.837ZM142.216,205a18.922,18.922,0,0,1,.539-4.5,12.134,12.134,0,0,1,8.566-8.98,20.762,20.762,0,0,0,29.685-17.8l1.387-30.463c6.039.055,15.593-.056,27.29-.89,31.215,26.77,69.542,38.645,96.493,43.9,29.771,5.806,51.948,5.034,52.877,5,.156-.006.308-.025.461-.041a12.246,12.246,0,0,1,9.731,9.274,18.856,18.856,0,0,1-15.017,23.041,7,7,0,0,0-5.691,5.7l-5.146,17.7c-.063.217-.116.438-.158.661a88.762,88.762,0,0,1-174.466,0c-.042-.223-.095-.444-.158-.661l-5.146-17.7a7,7,0,0,0-5.691-5.7A18.782,18.782,0,0,1,142.216,205Z" style="fill:#1ae5be"/></svg>
