<?xml version="1.0"?>
<svg xmlns="http://www.w3.org/2000/svg" id="Layer_1" data-name="Layer 1" viewBox="0 0 512 512" width="512" height="512"><title>Companies Network</title><path d="M266.164,307.57V280.263a83.241,83.241,0,0,1-18.96-2.4v29.71l19.875,19.975,9.48-9.528Z" style="fill:#d4e1f4"/><path d="M273.8,133.824A19.542,19.542,0,0,0,254.5,114.348l-21.526-.2,6.372-4.225A30.176,30.176,0,0,0,252.625,88.4c5.055-2.461,9.835-4.78,14.969-6.159a75.125,75.125,0,0,1,9.858-1.951,76.921,76.921,0,0,0-9.531-.613,74.427,74.427,0,0,0-19.288,2.564c-5.133,1.379-9.913,3.7-14.968,6.159a30.178,30.178,0,0,1-13.285,21.52l-6.371,4.225,21.526.2a19.542,19.542,0,0,1,19.305,19.476,7.152,7.152,0,0,0,7.18,7.138h18.96A7.152,7.152,0,0,1,273.8,133.824Z" style="fill:#d4e1f4"/><path d="M215.972,206.255v-.115a5.574,5.574,0,0,0-4.775-5.635c-1.179-.405-3.889-1.534-4.777-1.945a13.793,13.793,0,0,1-5.867-14.842,8.936,8.936,0,0,1,8.095-6.831,5.669,5.669,0,0,0,2.341-.752c10.618-1.328,19.333-10.457,20.369-21.877a39.349,39.349,0,0,1,11.634-25.121,8.129,8.129,0,0,0-7.57-5.392l-5.259-.052c-11.127,8.648-16.637,18.14-17.765,30.565-1.036,11.42-9.751,20.549-20.369,21.877a5.674,5.674,0,0,1-2.342.752,8.936,8.936,0,0,0-8.094,6.831,13.8,13.8,0,0,0,5.866,14.842c.889.411,3.6,1.54,4.778,1.945a5.574,5.574,0,0,1,4.774,5.635v.115a70.529,70.529,0,0,0,80.112,69.989A70.729,70.729,0,0,1,215.972,206.255Z" style="fill:#d4e1f4"/><path d="M352.711,180.51a8.842,8.842,0,0,0-4.206-3.1c-.051.054-.105.1-.156.155A13.222,13.222,0,0,0,352.711,180.51Z" style="fill:#d4e1f4"/><path d="M207.411,321.986l13.75-4.962-2.9-5.8-29.812,10.759a35.234,35.234,0,0,0-18.932,28.044v59.648h18.96V350.03A35.236,35.236,0,0,1,207.411,321.986Z" style="fill:#d4e1f4"/><path d="M364.5,250h67a6,6,0,0,0,0-12h-67a6,6,0,0,0,0,12Z" style="fill:#1ae5be"/><rect x="46.85" y="390.5" width="65.299" height="11.999" transform="translate(-309.202 284.952) rotate(-62.65)" style="fill:#1ae5be"/><path d="M125.5,357h25a6,6,0,0,0,0-12h-25a6,6,0,0,0,0,12Z" style="fill:#1ae5be"/><rect x="455" y="274" width="12" height="58" style="fill:#1ae5be"/><path d="M368.5,126.5a5.984,5.984,0,0,0,4.243-1.757l39-39a6,6,0,0,0-8.486-8.486l-39,39A6,6,0,0,0,368.5,126.5Z" style="fill:#1ae5be"/><path d="M143.5,195a6,6,0,0,0-6-6h-67a6,6,0,0,0,0,12h67A6,6,0,0,0,143.5,195Z" style="fill:#1ae5be"/><path d="M47.536,179.717a6,6,0,0,0,8.181-2.253l50-88a6,6,0,0,0-10.434-5.928l-50,88A6,6,0,0,0,47.536,179.717Z" style="fill:#1ae5be"/><path d="M138.583,81.044l29,25a6,6,0,1,0,7.834-9.088l-29-25a6,6,0,1,0-7.834,9.088Z" style="fill:#1ae5be"/><path d="M166.5,418h200c3.313,0,5.5-2.917,5.5-6.23V349.291c0-.166.243-.333.229-.5a45.166,45.166,0,0,0-24.616-36.543c-.21-.105-.131-.2-.352-.277L318,301.307V290.643a6.285,6.285,0,0,0-3.936-5.591l-.128-.052h-.144L297,278.239V276.9a79.573,79.573,0,0,0,48.294-68.5,24.761,24.761,0,0,0,14.842-28.755,19.818,19.818,0,0,0-11.659-13.711l1.022-7.1c.021-.146.038-.292.049-.438a83.3,83.3,0,0,0-104.7-86.321c-6.008,1.613-11.331,4.2-16.479,6.709q-1.362.663-2.736,1.324a6,6,0,0,0-3.409,5.412,17.518,17.518,0,0,1-7.838,14.62l-20.875,13.875a5.989,5.989,0,0,0-1.845,1.933l-1.24,2.082a5.816,5.816,0,0,0-.323.622,83.583,83.583,0,0,0-7.022,39.744c.01.152.026.3.048.455l1.031,7.048a19.823,19.823,0,0,0-11.739,13.742,24.649,24.649,0,0,0,10.932,26.8,29.064,29.064,0,0,0,3.93,1.745C188.92,239.271,209,265.651,236,277.09v1.048l-17,6.883v.066s-.155.007-.167.013A6.12,6.12,0,0,0,215,290.643v10.664l-29.324,10.666a4.313,4.313,0,0,0-.53.277,45.508,45.508,0,0,0-24.933,36.543c-.014.165-.213.332-.213.5V411.77A6.646,6.646,0,0,0,166.5,418ZM360,349.551V406H272V346.89l13.44,8.793a6.4,6.4,0,0,0,3.453,1.008,6.478,6.478,0,0,0,1.6-.2,6.06,6.06,0,0,0,3.858-3.116L314.559,313l27.856,10.14A32.94,32.94,0,0,1,360,349.551Zm-102.918-14.8-10.773,7.182-17.955-35.91ZM248,308.585V281a78.392,78.392,0,0,0,18.284,2.179A77.611,77.611,0,0,0,285,280.9v27.616l-18.532,18.673Zm56.646-2.566-17.955,35.91-10.773-7.182Zm-3.889-13.255L297,296.521v-5.3ZM221.029,110.141a29.479,29.479,0,0,0,12.942-20.73,79.511,79.511,0,0,1,13.991-5.74,71.387,71.387,0,0,1,89.631,73.691l-1.431,10-.846,1.047a1.225,1.225,0,0,1-2.177-.764A28.676,28.676,0,0,0,304.49,139H260.657a6.351,6.351,0,0,1-6.339-6.345,19.307,19.307,0,0,0-19.052-19.245l-18.87-.188Zm-20.622,14.921,12.735.126a48.634,48.634,0,0,0-11.475,27.9,12.214,12.214,0,0,1-5.88,9.392l-.749-5.124A71.609,71.609,0,0,1,200.407,125.062ZM199,203.984v-.111a5.949,5.949,0,0,0-5.061-5.936c-1.114-.388-3.629-1.421-4.484-1.812a12.663,12.663,0,0,1-5.384-13.624,8.029,8.029,0,0,1,7.278-6.136,5.984,5.984,0,0,0,2.408-.759c10.363-1.371,18.849-10.282,19.861-21.436,1.06-11.695,6.234-20.65,16.674-28.812l4.855.048a7.271,7.271,0,0,1,7.171,7.249A18.365,18.365,0,0,0,260.657,151H304.49a16.663,16.663,0,0,1,16.649,16.643,13.226,13.226,0,0,0,22.595,9.332A7.78,7.78,0,0,1,348.5,182.5a12.685,12.685,0,0,1,.361,3.018,12.389,12.389,0,0,1-10.158,12.438,5.787,5.787,0,0,0-4.7,5.908v.117c0,37.052-30.448,67.2-67.495,67.2S199,241.036,199,203.984Zm37,92.6-3.874-3.874,3.874-1.6Zm-64,52.966c2-11.2,8.069-21.281,18.077-26.416L218.3,313l20.252,40.379a6.064,6.064,0,0,0,5.413,3.317,5.246,5.246,0,0,0,3.086-1.008L260,346.89V406H172Z" style="fill:#0635c9"/><path d="M280.254,388.958a7.5,7.5,0,1,0,7.5,7.5A7.51,7.51,0,0,0,280.254,388.958Z" style="fill:#0635c9"/><path d="M280.254,358.181a7.5,7.5,0,1,0,7.5,7.5A7.509,7.509,0,0,0,280.254,358.181Z" style="fill:#0635c9"/><path d="M461.5,207.5a36,36,0,1,0,36,36A36.04,36.04,0,0,0,461.5,207.5Zm0,60a24,24,0,1,1,24-24A24.027,24.027,0,0,1,461.5,267.5Z" style="fill:#0635c9"/><path d="M461.5,325.5a26,26,0,1,0,26,26A26.03,26.03,0,0,0,461.5,325.5Zm0,40a14,14,0,1,1,14-14A14.015,14.015,0,0,1,461.5,365.5Z" style="fill:#0635c9"/><path d="M86.5,451.5a36,36,0,1,0-36,36A36.04,36.04,0,0,0,86.5,451.5Zm-60,0a24,24,0,1,1,24,24A24.027,24.027,0,0,1,26.5,451.5Z" style="fill:#0635c9"/><path d="M105.5,376.5a26,26,0,1,0-26-26A26.03,26.03,0,0,0,105.5,376.5Zm0-40a14,14,0,1,1-14,14A14.015,14.015,0,0,1,105.5,336.5Z" style="fill:#0635c9"/><path d="M50.5,220.5a26,26,0,1,0-26-26A26.03,26.03,0,0,0,50.5,220.5Zm0-40a14,14,0,1,1-14,14A14.015,14.015,0,0,1,50.5,180.5Z" style="fill:#0635c9"/><path d="M115.5,96.5a36,36,0,1,0-36-36A36.04,36.04,0,0,0,115.5,96.5Zm0-60a24,24,0,1,1-24,24A24.027,24.027,0,0,1,115.5,36.5Z" style="fill:#0635c9"/><path d="M421.5,92.5a26,26,0,1,0-26-26A26.03,26.03,0,0,0,421.5,92.5Zm0-40a14,14,0,1,1-14,14A14.015,14.015,0,0,1,421.5,52.5Z" style="fill:#0635c9"/></svg>
