<svg id="Layer_1" height="512" viewBox="0 0 512 512" width="512" xmlns="http://www.w3.org/2000/svg" data-name="Layer 1"><path d="" fill="#d4e1f4"/><path d="m42.119 234.6a1.335 1.335 0 0 1 .1-1.285h-20a1.335 1.335 0 0 0 -.1 1.285c11.2 25 33.573 40.537 58.4 40.537h20c-24.827-.003-47.204-15.537-58.4-40.537z" fill="#d4e1f4"/><path d="m441.724 262.272a43.018 43.018 0 0 1 -9.253-14.624 39.357 39.357 0 0 1 -2.391-16.2c1.075-16.07 12.257-32.6 29.918-37.224a39.331 39.331 0 0 0 -10-1.274c-23.375 0-38.652 19.574-39.918 38.5a39.357 39.357 0 0 0 2.391 16.2 43.018 43.018 0 0 0 9.253 14.624l28.276 30.116 10-10.652z" fill="#d4e1f4"/><path d="m118.594 310.693a31.557 31.557 0 1 0 31.556 31.557 31.593 31.593 0 0 0 -31.556-31.557zm0 51.114a19.557 19.557 0 1 1 19.556-19.557 19.579 19.579 0 0 1 -19.556 19.557z" fill="#1ae5be"/><path d="m450 310.693a31.557 31.557 0 1 0 31.557 31.557 31.593 31.593 0 0 0 -31.557-31.557zm0 51.114a19.557 19.557 0 1 1 19.557-19.557 19.579 19.579 0 0 1 -19.557 19.557z" fill="#1ae5be"/><path d="m231.042 336.25h-66.442a6 6 0 0 0 0 12h66.446a6 6 0 1 0 0-12z" fill="#1ae5be"/><path d="m402.79 336.25a6.011 6.011 0 1 0 4.239 1.76 6.012 6.012 0 0 0 -4.239-1.76z" fill="#1ae5be"/><path d="m486.239 195.994a51.172 51.172 0 0 0 -72.482 0 54.187 54.187 0 0 0 -15.65 34.652 51.3 51.3 0 0 0 3.09 21.116 54.91 54.91 0 0 0 11.779 18.723l32.648 34.777a6 6 0 0 0 8.748 0l32.649-34.777a54.88 54.88 0 0 0 11.779-18.723 51.3 51.3 0 0 0 3.091-21.116 54.183 54.183 0 0 0 -15.652-34.652zm1.286 51.654a42.985 42.985 0 0 1 -9.252 14.624l-28.273 30.118-28.274-30.118a43.018 43.018 0 0 1 -9.253-14.624 39.357 39.357 0 0 1 -2.391-16.2c1.266-18.924 16.543-38.5 39.918-38.5s38.653 19.574 39.919 38.5a39.366 39.366 0 0 1 -2.394 16.2z" fill="#0635c9"/><path d="m450 204.251c-14.18 0-25.715 11.773-25.715 26.244s11.533 26.244 25.715 26.244 25.716-11.773 25.716-26.244-11.538-26.244-25.716-26.244zm0 40.488a14.254 14.254 0 1 1 13.714-14.239 14 14 0 0 1 -13.714 14.239z" fill="#0635c9"/><path d="m284.508 336.25h-32.708a6 6 0 0 0 0 12h32.712a6 6 0 1 0 0-12z" fill="#1ae5be"/><path d="m327.751 336.25h-22.489a6 6 0 1 0 0 12h22.489a6 6 0 0 0 0-12z" fill="#1ae5be"/><path d="m381.529 336.25a5.992 5.992 0 1 0 4.241 1.76 6.052 6.052 0 0 0 -4.241-1.76z" fill="#1ae5be"/><path d="m360.771 336.25h-12.266a6 6 0 0 0 0 12h12.266a6 6 0 0 0 0-12z" fill="#1ae5be"/><path d="m118.594 331.139a11.111 11.111 0 1 0 11.111 11.111 11.124 11.124 0 0 0 -11.111-11.111zm0 12a.889.889 0 1 1 .888-.889.89.89 0 0 1 -.888.889z" fill="#1ae5be"/><g fill="#0635c9"><path d="m186.94 221.312h-28.54l-50.731-80.323a6 6 0 0 0 -5.073-2.8h-12.054a6 6 0 0 0 -5.875 7.217l15.717 75.9h-49.822l-16.776-54.842a6 6 0 0 0 -5.737-4.245h-12.049a6 6 0 0 0 -6 6v64.258c0 .184.011.366.027.546a13.373 13.373 0 0 0 1.14 6.478c13.156 29.381 39.73 47.633 69.353 47.633h149.611a16.429 16.429 0 0 0 13.738-7.693 19.219 19.219 0 0 0 1.355-18.135c-11.046-24.669-33.379-39.994-58.284-39.994zm-89.028-71.119h1.372l44.916 71.119h-31.562zm-74.3 24.026 14.405 47.093h-15.985-.032v-47.093zm210.19 98.7a4.468 4.468 0 0 1 -3.668 2.218h-149.614c-24.828 0-47.2-15.533-58.4-40.537a1.335 1.335 0 0 1 .1-1.285h164.72a48.836 48.836 0 0 1 30.686 11h-13.855a6 6 0 1 0 0 12h24.943a62.286 62.286 0 0 1 5.557 9.9 7.111 7.111 0 0 1 -.471 6.701z"/><path d="m63.518 242.477a7.836 7.836 0 1 0 7.836 7.835 7.844 7.844 0 0 0 -7.836-7.835z"/><path d="m91.056 242.477a7.836 7.836 0 1 0 7.836 7.835 7.844 7.844 0 0 0 -7.836-7.835z"/><path d="m118.594 242.477a7.836 7.836 0 1 0 7.836 7.835 7.844 7.844 0 0 0 -7.836-7.835z"/><path d="m146.133 242.477a7.836 7.836 0 1 0 7.836 7.835 7.844 7.844 0 0 0 -7.836-7.835z"/><path d="m173.671 242.477a7.836 7.836 0 1 0 7.836 7.835 7.845 7.845 0 0 0 -7.836-7.835z"/></g></svg>