<svg height="400pt" viewBox="-42 0 400 400.05262" width="400pt" xmlns="http://www.w3.org/2000/svg"><path d="m30.027344 59.925781c0-9.957031 8.070312-18.027343 18.027344-18.027343h10.648437c9.957031 0 18.027344 8.070312 18.027344 18.023437v.214844l21.503906-10.277344c33.734375-16.113281 73.628906-12.15625 103.535156 10.273437 29.910157 22.433594 69.800781 26.390626 103.535157 10.277344l1.507812-.71875v-39.554687l-21.507812 10.273437c-33.730469 16.117188-73.625 12.15625-103.53125-10.273437-29.910157-22.429688-69.804688-26.390625-103.539063-10.273438l-21.503906 10.273438v-.210938c0-9.957031-8.070313-18.027343-18.027344-18.027343h-10.648437c-9.957032 0-18.027344 8.070312-18.027344 18.027343v342.097657c0 9.957031 8.070312 18.027343 18.023437 18.027343h1.976563zm0 0" fill="#d4e1f4"/><path d="m241.960938 218.753906c-23.878907-.011718-47.109376-7.78125-66.1875-22.136718-26.90625-20.257813-62.863282-23.824219-93.226563-9.25l-21.507813 10.273437c-4.984374 2.378906-10.953124.269531-13.332031-4.714844-2.382812-4.984375-.273437-10.953125 4.710938-13.335937l21.507812-10.273438c37.082031-17.792968 80.988281-13.4375 113.84375 11.300782 26.90625 20.257812 62.863281 23.824218 93.226563 9.253906l15.816406-7.558594v-136.316406l-7.199219 3.4375c-37.082031 17.796875-80.988281 13.4375-113.84375-11.300782-26.910156-20.253906-62.863281-23.820312-93.226562-9.25l-21.5 10.277344c-4.984375 2.382813-10.953125.273438-13.335938-4.710937-2.378906-4.984375-.269531-10.953125 4.710938-13.335938l21.507812-10.273437c37.078125-17.796875 80.988281-13.4375 113.84375 11.296875 26.910157 20.257812 62.863281 23.828125 93.226563 9.253906l21.507812-10.273437c3.097656-1.480469 6.738282-1.265626 9.640625.5625 2.90625 1.832031 4.667969 5.027343 4.667969 8.460937v158.472656c0 3.855469-2.214844 7.363281-5.6875 9.023438l-21.503906 10.277343c-14.878906 7.125-31.164063 10.832032-47.660156 10.839844zm0 0" fill="#1ae5be"/><path d="m38.703125 400.050781h-10.648437c-15.472657-.015625-28.0117192-12.554687-28.0273442-28.023437v-342.101563c.015625-15.472656 12.5546872-28.011719 28.0273442-28.027343h10.648437c15.472656.015624 28.011719 12.554687 28.027344 28.027343v342.101563c-.019531 15.46875-12.554688 28.007812-28.027344 28.023437zm-10.648437-378.152343c-4.433594.003906-8.023438 3.59375-8.027344 8.027343v342.101563c.003906 4.429687 3.59375 8.019531 8.027344 8.023437h10.648437c4.429687-.003906 8.019531-3.59375 8.027344-8.023437v-342.101563c-.003907-4.433593-3.597657-8.023437-8.027344-8.027343zm0 0" fill="#0635c9"/></svg>