<?xml version="1.0"?>
<svg xmlns="http://www.w3.org/2000/svg" id="Layer_1" data-name="Layer 1" viewBox="0 0 512 512" width="512" height="512"><title>Female User</title><path d="M178.293,140.617A97.736,97.736,0,0,1,298.046,45.523a97.7,97.7,0,0,0-139.753,88.094l.1,32.933,1.176,1.176a8.975,8.975,0,0,0,10.178,1.758,8.8,8.8,0,0,0,4.167-4.09,22.99,22.99,0,0,1,4.436-6.3Z" style="fill:#d4e1f4"/><path d="M363.41,189.215a12.037,12.037,0,0,0-3.719-.962,7,7,0,0,1-6.124-5.195,132.851,132.851,0,0,1-28.081-4.277A133.962,133.962,0,0,0,363.41,189.215Z" style="fill:#d4e1f4"/><path d="M231.8,314.835a87.869,87.869,0,0,1-25.17-19.482,97.051,97.051,0,0,1-25.011-64.26v-.142a7,7,0,0,0-5.793-6.895,16.772,16.772,0,0,1-13.356-20.493,10.861,10.861,0,0,1,9.839-8.31,7,7,0,0,0,6.121-5.161,22.934,22.934,0,0,0,28.1-11.621c1.062-2.2,2.753-3.627,3.71-3.68l.376-.021c13.1-.732,35.032-1.958,58.426-12.016,3.852-1.655,7.6-3.516,11.258-5.535A132.18,132.18,0,0,1,267.14,146.2a128.621,128.621,0,0,1-18.1,9.558c-23.394,10.058-45.323,11.284-58.426,12.016l-.376.021c-.957.053-2.648,1.476-3.71,3.68a22.934,22.934,0,0,1-28.095,11.621,7,7,0,0,1-6.121,5.161,10.861,10.861,0,0,0-9.839,8.31,16.772,16.772,0,0,0,13.356,20.493,7,7,0,0,1,5.793,6.895v.142a97.051,97.051,0,0,0,25.011,64.26,85.652,85.652,0,0,0,34.223,23.421h.168v.06A77.115,77.115,0,0,0,231.8,314.835Z" style="fill:#d4e1f4"/><path d="M123,428.261a42.981,42.981,0,0,1,29.2-40.724l32.244-10.929-10.507-10.217L132.2,380.537A42.981,42.981,0,0,0,103,421.261v54.728h20Z" style="fill:#d4e1f4"/><polygon points="208.826 368.344 222.464 363.722 212.153 353.438 188.826 361.344 248.9 419.761 248.9 407.313 208.826 368.344" style="fill:#d4e1f4"/><path d="M241.02,349.509V330.251c-3.487-.806-11.648-1.176-20-3.672v15.93L256,377.4l6.491-6.473Z" style="fill:#d4e1f4"/><path d="M288.815,442.56h-9.99a7,7,0,0,0,0,14h9.99a7,7,0,0,0,0-14Z" style="fill:#0635c9"/><path d="M96,489.989H416a7,7,0,0,0,7-7V421.261a56.973,56.973,0,0,0-38.7-53.983L304.98,340.4V311.774h-14v30.735L256,377.4l-34.98-34.886V311.774h-14V340.4L127.7,367.278A56.973,56.973,0,0,0,89,421.261v61.728A7,7,0,0,0,96,489.989Zm313-68.728v54.728H262.9v-36.5l75.166-73.093L379.8,380.537A42.978,42.978,0,0,1,409,421.261Zm-85.826-59.917L262.9,419.956v-29.67l36.948-36.848Zm-111.021-7.906L248.9,390.086v29.675l-60.074-58.417ZM103,421.261a42.981,42.981,0,0,1,29.2-40.724l41.737-14.146,74.966,72.9v36.7H103Z" style="fill:#0635c9"/><path d="M394.006,345.352l-24.48-118.7a30.769,30.769,0,0,0,13.6-33.42,24.626,24.626,0,0,0-15.773-17.526l.15-41.4a111.607,111.607,0,1,0-223.211-.666l.1,35.811c0,.055,0,.111,0,.167l.138,6.13a24.631,24.631,0,0,0-15.667,17.488,30.789,30.789,0,0,0,16.546,35.051l-31.052,116.68a7,7,0,0,0,5.092,8.6,201.868,201.868,0,0,0,25.252,3.965,7,7,0,0,0,5.8-2.15l17.014-17.964.707,13.222a7.01,7.01,0,0,0,.647,2.59l27.852-9.342c-3.869-.034-7.711-.184-11.437-.329q-1.746-.069-3.427-.131L180.63,320.4a7,7,0,0,0-12.072-4.439L142.73,343.229c-5.257-.611-9.626-1.287-12.92-1.864l22.727-85.4a111.845,111.845,0,0,0,23.71,41.778c19.035,21.038,44.125,32.624,70.648,32.624H265.1c26.523,0,51.613-11.586,70.647-32.624a111.947,111.947,0,0,0,24.781-45.391l18.229,88.387-13.756,1.687-24.182-21.857a7,7,0,0,0-10.12.772L312.974,343.1l14.15,4.8,9.778-12,21.088,19.06a7,7,0,0,0,4.693,1.807,6.8,6.8,0,0,0,.853-.053l24.466-3a7,7,0,0,0,6-8.361ZM255.9,36.011a97.606,97.606,0,0,1,97.6,98.225l-.091,24.9c-24.137-8.106-43.136-24.831-50.944-45.22a180.661,180.661,0,0,0,15.416-23.087A7,7,0,0,0,305.7,83.938c-36.975,65.447-90.26,68.423-115.867,69.853l-.377.021c-6.314.354-12.269,4.792-15.541,11.582a8.8,8.8,0,0,1-4.167,4.09,8.975,8.975,0,0,1-10.178-1.758l-1.176-1.176-.1-32.933A97.718,97.718,0,0,1,255.9,36.011Zm79.226,130.683a120,120,0,0,1-56.354-28.788,140.884,140.884,0,0,0,13.543-12.348C300.883,142.77,316.091,157.268,335.126,166.694Zm21.048,50.362a7,7,0,0,0-5.793,6.895v.142a97.051,97.051,0,0,1-25.011,64.26C309.023,306.42,287.62,316.37,265.1,316.37H246.9c-22.517,0-43.92-9.95-60.266-28.017a97.051,97.051,0,0,1-25.011-64.26v-.142a7,7,0,0,0-5.793-6.895,16.772,16.772,0,0,1-13.356-20.493,10.861,10.861,0,0,1,9.839-8.31,7,7,0,0,0,6.121-5.161,22.934,22.934,0,0,0,28.1-11.621c1.062-2.2,2.753-3.627,3.71-3.68l.376-.021c13.1-.732,35.032-1.958,58.426-12.016a128.621,128.621,0,0,0,18.1-9.558,133.958,133.958,0,0,0,86.427,36.862,7,7,0,0,0,6.124,5.195,10.859,10.859,0,0,1,9.838,8.31,16.768,16.768,0,0,1-13.355,20.493Z" style="fill:#1ae5be"/></svg>
